<?xml version="1.0" encoding="UTF-8"?>
<svg version="1.1" xmlns="http://www.w3.org/2000/svg" width="32" height="30">
<path d="M0 0 C4.41150589 2.27214685 7.09693724 5.45242145 9 10 C10.15413871 14.12192395 10.63976394 17.74936503 10 22 C7.35301414 25.96443544 4.33315845 28.0790028 0 30 C-5.62986094 31.04985752 -11.58534701 31.35903966 -16.625 28.25 C-21.80602498 23.34166054 -21.80602498 23.34166054 -22.46875 18.7578125 C-22.56351958 7.74084837 -22.56351958 7.74084837 -19.75 4.25 C-13.63867373 -0.75017604 -7.75752595 -1.09473602 0 0 Z " fill="#F1F1F1" transform="translate(22,0)"/>
<path d="M0 0 C4.41150589 2.27214685 7.09693724 5.45242145 9 10 C10.15413871 14.12192395 10.63976394 17.74936503 10 22 C7.35301414 25.96443544 4.33315845 28.0790028 0 30 C-5.62986094 31.04985752 -11.58534701 31.35903966 -16.625 28.25 C-21.80602498 23.34166054 -21.80602498 23.34166054 -22.46875 18.7578125 C-22.56351958 7.74084837 -22.56351958 7.74084837 -19.75 4.25 C-13.63867373 -0.75017604 -7.75752595 -1.09473602 0 0 Z M-19.375 6.625 C-21.73067883 11.51756373 -22.08178023 15.84582055 -20.3046875 21.02734375 C-18.78915355 24.03930829 -17.07423089 25.94521053 -14.375 27.9375 C-9.83709166 29.36610078 -5.70699923 29.87717789 -1 29 C1.27623033 27.53996807 2.34897523 26.20136636 4 24 C0.37 23.67 -3.26 23.34 -7 23 C-5.68 23 -4.36 23 -3 23 C-1.45698114 22.94733724 0.08524507 22.86329301 1.625 22.75 C2.40101562 22.70359375 3.17703125 22.6571875 3.9765625 22.609375 C6.15623837 22.18438228 6.15623837 22.18438228 7.25 20.1640625 C8.3739005 16.92114126 8.35284373 14.41082269 8 11 C5.73075515 6.71364862 3.2425888 3.39798497 -1 1 C-8.42040113 -0.10622395 -14.20402826 0.90971544 -19.375 6.625 Z " fill="#313131" transform="translate(22,0)"/>
<path d="M0 0 C0.33 0 0.66 0 1 0 C1.33 3.96 1.66 7.92 2 12 C-0.475 13.485 -0.475 13.485 -3 15 C-2.78537109 14.18789063 -2.78537109 14.18789063 -2.56640625 13.359375 C-1.92079535 10.67007168 -1.4236692 7.97254755 -0.9375 5.25 C-0.67259766 3.77273438 -0.67259766 3.77273438 -0.40234375 2.265625 C-0.26957031 1.51796875 -0.13679688 0.7703125 0 0 Z " fill="#0A0A0A" transform="translate(30,10)"/>
</svg>
